<svg fill="white" height="24" viewBox="0 0 24 24" width="24" xmlns="http://www.w3.org/2000/svg"><g stroke="#141b34" stroke-linecap="round" stroke-width="1.5"><path d="m13 3h-2c-4.24264 0-6.36396 0-7.68198 1.31802s-1.31802 3.43934-1.31802 7.68198c0 4.2426 0 6.364 1.31802 7.682s3.43934 1.318 7.68198 1.318h2c4.2426 0 6.364 0 7.682-1.318s1.318-3.4394 1.318-7.682c0-4.24264 0-6.36396-1.318-7.68198s-3.4394-1.31802-7.682-1.31802z"/><path d="m11 10-1.75464 3.9123c-.32523.7251-.48785 1.0877-.74536 1.0877s-.42013-.3626-.74536-1.0877l-1.75464-3.9123m8 5v-2m0 0v-2c0-.4714 0-.7071.1464-.8536.1465-.1464.3822-.1464.8536-.1464h1.5c.8284 0 1.5.6716 1.5 1.5s-.6716 1.5-1.5 1.5m-2.5 0h2.5m0 0 1 2" stroke-linejoin="round"/></g></svg>